<svg id="Layer_1" data-name="Layer 1" xmlns="http://www.w3.org/2000/svg" viewBox="0 0 505 505"><defs><style>.cls-1{fill:#fff;}.cls-1,.cls-2,.cls-3{stroke:#000;stroke-miterlimit:10;}.cls-1,.cls-2{stroke-width:4px;}.cls-2{fill:none;}</style></defs><title>Emoji_love</title><circle class="cls-1" cx="252.5" cy="252.5" r="250.5"/><path class="cls-2" d="M448,750s38,37,105.5,37S657,750,657,750" transform="translate(-301 -383)"/><path class="cls-2" d="M492,523s-15-15-40-15-40,15-40,15" transform="translate(-301 -383)"/><path class="cls-3" d="M499.87,582.55c0,26.86-25.34,49.31-47.25,61C426,629,404,606,404,579.13s18.49-41.09,48.62-7.53C482.07,535.3,499.87,555.7,499.87,582.55Z" transform="translate(-301 -383)"/><path class="cls-2" d="M696,523s-15-15-40-15-40,15-40,15" transform="translate(-301 -383)"/><path class="cls-3" d="M703.87,582.55c0,26.86-25.34,49.31-47.25,61C630,629,608,606,608,579.13s18.49-41.09,48.62-7.53C686.07,535.3,703.87,555.7,703.87,582.55Z" transform="translate(-301 -383)"/></svg>