<svg id="Layer_1" data-name="Layer 1" xmlns="http://www.w3.org/2000/svg" viewBox="0 0 505 505"><defs><style>.cls-1{fill:#fff;}.cls-1,.cls-2,.cls-3{stroke:#000;stroke-miterlimit:10;}.cls-1,.cls-3{stroke-width:4px;}.cls-3{fill:none;}</style></defs><title>Emoji_angry</title><circle class="cls-1" cx="252.5" cy="252.5" r="250.5"/><ellipse class="cls-2" cx="147" cy="209" rx="20.5" ry="43.5"/><ellipse class="cls-2" cx="356" cy="209" rx="20.5" ry="43.5"/><path class="cls-3" d="M449,776s38-37,105.5-37S658,776,658,776" transform="translate(-302 -372)"/><line class="cls-3" x1="317.15" y1="161.53" x2="394.85" y2="142.47"/><line class="cls-3" x1="185.85" y1="161.53" x2="108.15" y2="142.47"/><path class="cls-3" d="M743.86,466.32s-10.13,7.69-25,2.16-17.34-18.38-17.34-18.38" transform="translate(-302 -372)"/><path class="cls-3" d="M705.36,504.42s.1-12.72,13.57-21.11,25.15-2.49,25.15-2.49" transform="translate(-302 -372)"/><path class="cls-3" d="M686.43,454.27s11.91,4.44,15.21,20-6.25,24.49-6.25,24.49" transform="translate(-302 -372)"/></svg>