<svg id="Layer_1" data-name="Layer 1" xmlns="http://www.w3.org/2000/svg" viewBox="0 0 505 505"><defs><style>.cls-1{fill:#fff;}.cls-1,.cls-2,.cls-3,.cls-4{stroke:#000;stroke-miterlimit:10;}.cls-1,.cls-2,.cls-4{stroke-width:4px;}.cls-4{fill:none;}</style></defs><title>Emoji_disgust</title><circle class="cls-1" cx="252.5" cy="252.5" r="250.5"/><path class="cls-2" d="M658,783c0,16.57-26,5-58,5s-58,11.57-58-5,26-30,58-30S658,766.43,658,783Z" transform="translate(-345 -390)"/><path class="cls-3" d="M637.5,889.5l-78,2s-3-5,0-17.5,3-12.5,0-18.5-2-15,0-19,1-15,0-21.5-3-15,0-18.75,0-18.75,0-18.75h80s-2,11,0,19,3,8.5,0,15.25-3,14.75,0,19.25,3,12,0,17.75-2,15.25,0,22S637.5,889.5,637.5,889.5Z" transform="translate(-345 -390)"/><line class="cls-4" x1="113.5" y1="186.5" x2="201.5" y2="230.5"/><line class="cls-4" x1="113.5" y1="273.5" x2="201.5" y2="229.5"/><path class="cls-4" d="M540.86,508.5S527,521,502,526s-38.86,1.5-38.86,1.5" transform="translate(-345 -390)"/><line class="cls-4" x1="396.5" y1="186.5" x2="308.5" y2="230.5"/><line class="cls-4" x1="396.5" y1="273.5" x2="308.5" y2="229.5"/><path class="cls-4" d="M658.14,508.5S672,521,697,526s38.86,1.5,38.86,1.5" transform="translate(-345 -390)"/></svg>